<svg xmlns="http://www.w3.org/2000/svg" viewBox="100.6 44.16 98.81 98.79">
  <defs>
    <clipPath id="clip-1">
      <circle cx="150" cy="150" r="150"/>
    </clipPath>
  </defs>
  <g clip-path="url(#clip-1)" fill="none" fill-rule="nonzero" stroke="none" stroke-width="1" stroke-linecap="butt" stroke-linejoin="miter" stroke-miterlimit="10" stroke-dasharray="" stroke-dashoffset="0" font-family="none" font-weight="none" font-size="none" text-anchor="none" style="mix-blend-mode: normal; --darkreader-inline-stroke: none;" data-darkreader-inline-stroke="">
    <path d="M146.7334,44.26898c27.24756,-1.80915 50.79492,18.82821 52.57031,46.0733c1.77393,27.24495 -18.89795,50.76102 -46.15137,52.50003c-27.20259,1.73593 -50.67129,-18.88591 -52.44258,-46.08136c-1.77114,-27.1956 18.82456,-50.68604 46.02363,-52.49197z" fill="#fee466" data-darkreader-inline-fill="" style="--darkreader-inline-fill: var(--darkreader-background-fee466, #6b5901);"/>
    <path d="M162.17139,81.10144c1.17773,0.24883 5.76855,3.00496 7.28906,3.7589c-0.88623,0.44024 -1.73291,0.95913 -2.52686,1.55022c-3.80127,2.78762 -6.47461,7.35539 -7.16016,12.01836c-0.28125,1.92339 -0.19043,4.23971 1.05322,5.83988c0.90967,1.17105 2.23389,1.69785 3.66943,1.83508c6.20508,0.59329 10.37988,-3.001 14.77734,-6.6776c-0.89062,6.09383 -2.25732,10.18665 -7.30371,14.13785c-4.11182,3.2201 -10.17041,5.45397 -15.44385,4.77383c-1.65967,-0.21397 -3.09961,-0.95796 -4.10596,-2.31369c-2.71582,-3.65829 -1.56299,-9.42728 -0.98584,-13.62672c-0.89941,2.10734 -1.95996,4.14716 -2.98242,6.19708c-2.56875,4.92615 -5.09063,9.87646 -7.56519,14.85035l-13.06479,-0.00073c0.96372,-7.76869 1.99526,-15.52873 3.09478,-23.2794c2.85308,-1.20986 5.54165,-2.52751 8.25571,-4.01652c-0.34629,1.38868 -0.47637,2.88721 -0.73667,4.30152c-0.49556,2.6933 -1.17085,5.46129 -1.40903,8.18432c5.46255,-10.39418 16.17861,-20.07131 25.14492,-27.53274z" fill="#5f2659" data-darkreader-inline-fill="" style="--darkreader-inline-fill: var(--darkreader-background-5f2659, #4c1e47);"/>
    <path d="M152.33057,57.29832c1.25977,-0.15275 2.39941,-0.12112 3.52881,0.52987c1.41211,0.81399 2.15186,2.31882 2.52686,3.84766c1.37549,5.61536 -1.13525,12.24375 -4.05029,17.02213c-6.58594,10.7962 -19.30503,18.70885 -31.43789,21.6271c0.46274,-3.00818 0.88608,-6.02207 1.27017,-9.04123c0.79951,-3.27692 0.727,-11.05308 2.47046,-13.37731c1.37021,-1.82658 6.03413,-1.71923 8.14526,-2.01331c3.65435,-0.50893 10.9418,-2.00496 13.17261,-5.00963c0.37646,-0.50541 0.88623,-1.25526 0.78662,-1.89922c-0.54346,-0.24575 -1.36377,0.55404 -1.81934,0.88664c-2.86201,2.09166 -6.14839,3.68202 -9.71689,3.97566c0.96694,-2.64936 2.30317,-5.22916 3.81841,-7.60583c2.7123,-4.25465 6.23101,-7.82639 11.30522,-8.94252z" fill="#5f2659" data-darkreader-inline-fill="" style="--darkreader-inline-fill: var(--darkreader-background-5f2659, #4c1e47);"/>
  </g>
</svg>